<svg id="Calque_1" data-name="Calque 1" xmlns="http://www.w3.org/2000/svg" viewBox="0 0 1668.92 255.8"><defs><style>.cls-1{fill:#b91818;}.cls-2{fill:#fff;}.cls-3{isolation:isolate;}.cls-4{fill:#020203;}.cls-5{fill:#c80001;}</style></defs><polygon class="cls-1" points="0 127.9 73.8 0 221.4 0 295.3 127.9 221.4 255.8 73.8 255.8 0 127.9"/><rect class="cls-2" x="143.4" y="163.37" width="102.8" height="23.8" transform="translate(-96.8 173.63) rotate(-46)"/><rect class="cls-2" x="181.78" y="68.11" width="23.8" height="102.8" transform="translate(-57.04 155.8) rotate(-46)"/><g class="cls-3"><path class="cls-4" d="M397.41,171.62q7.38,10.62,15.39,16.47t20.79,5.85a34.73,34.73,0,0,0,11.7-2,23.09,23.09,0,0,0,9.18-5.76,12.6,12.6,0,0,0,3.6-9,15.92,15.92,0,0,0-7.65-14q-7.65-5-21.51-7.74-17.64-3.6-28.08-12.51t-10.44-25.83a30,30,0,0,1,6-18.72,39.35,39.35,0,0,1,15.93-12.24,53,53,0,0,1,21.42-4.32q14.94,0,25.74,5.76a41.94,41.94,0,0,1,16.92,16.38l-13.68,13.5a41.51,41.51,0,0,0-12.24-13.14,29.89,29.89,0,0,0-17.28-5q-9.9,0-16.65,4.59a14.53,14.53,0,0,0-6.75,12.69q0,9.18,7.11,13.41t18.81,6.75a88.34,88.34,0,0,1,20.16,6.66A45.49,45.49,0,0,1,471.48,155a25.69,25.69,0,0,1,6,17.19q0,18-12.24,28.62T431.61,211.4a60.43,60.43,0,0,1-26.55-5.76q-12-5.76-21-18.72Z" transform="translate(-30.2 -20)"/><path class="cls-4" d="M512.25,162.26a32.56,32.56,0,0,0,4.23,16.65,32.12,32.12,0,0,0,11.16,11.52,28,28,0,0,0,14.85,4.23A26.54,26.54,0,0,0,558.15,190a54.11,54.11,0,0,0,10.8-9.72l10.26,12.6a38.73,38.73,0,0,1-9.36,9.09,52.84,52.84,0,0,1-13.5,6.84,48.19,48.19,0,0,1-15.84,2.61,43.47,43.47,0,0,1-23.4-6.48,46.18,46.18,0,0,1-16.47-17.64,51.78,51.78,0,0,1-6-25,51.63,51.63,0,0,1,6-25.11,46.36,46.36,0,0,1,16.47-17.55,43.47,43.47,0,0,1,23.4-6.48,50.17,50.17,0,0,1,23.4,5.31q10.26,5.31,15.3,13.77L569,144.8a35,35,0,0,0-11.79-10.53,29.7,29.7,0,0,0-14.85-4.41,28.5,28.5,0,0,0-15.3,4.23,30.25,30.25,0,0,0-10.8,11.52A34.32,34.32,0,0,0,512.25,162.26Z" transform="translate(-30.2 -20)"/><path class="cls-4" d="M684.69,115.1v94.5H666V195q-4.32,5.94-12.78,11.16a36.6,36.6,0,0,1-19.62,5.22,39.32,39.32,0,0,1-21.69-6.3,44.5,44.5,0,0,1-15.57-17.46,54.94,54.94,0,0,1-5.76-25.56q0-14.4,5.94-25.47a43.71,43.71,0,0,1,16.38-17.28,45.58,45.58,0,0,1,23.76-6.21A34.07,34.07,0,0,1,654,117.44a40.92,40.92,0,0,1,12,10.08V115.1Zm-46.8,79.2A27,27,0,0,0,653,190.07a28.53,28.53,0,0,0,10.08-11.52,36.7,36.7,0,0,0,3.6-16.47,35.72,35.72,0,0,0-3.6-16.2A28.67,28.67,0,0,0,653,134.45a28.76,28.76,0,0,0-29.88-.09,28,28,0,0,0-10.08,11.34,36.13,36.13,0,0,0-3.6,16.38,36.7,36.7,0,0,0,3.6,16.47,28.53,28.53,0,0,0,10.08,11.52A26.4,26.4,0,0,0,637.89,194.3Z" transform="translate(-30.2 -20)"/><path class="cls-4" d="M710.61,209.6V76.4h18.54V209.6Z" transform="translate(-30.2 -20)"/><path class="cls-4" d="M835,197.18h-.18q-5.76,5.58-15.84,9.9a52.92,52.92,0,0,1-21.06,4.32q-14.76,0-26-6.21a45,45,0,0,1-17.55-17.1,48.52,48.52,0,0,1-6.3-24.75q0-15.84,6.66-27.09A46,46,0,0,1,772.35,119a48.92,48.92,0,0,1,23.94-6,41.08,41.08,0,0,1,21.6,5.85,43,43,0,0,1,15.48,16.11q5.76,10.26,5.76,23.94l-.18,7.92H766.59q1.62,12.78,10.53,20.25t22.59,7.47q9.9,0,16-3.69a74,74,0,0,0,10.08-7.11ZM796.29,130a34.25,34.25,0,0,0-18.54,5q-7.92,4.95-10.44,17h52.92v-1.26a20.65,20.65,0,0,0-4.05-10.8,24.72,24.72,0,0,0-19.89-9.9Z" transform="translate(-30.2 -20)"/></g><g class="cls-3"><path class="cls-5" d="M915.05,83.6q14.58,0,25.65,5a51,51,0,0,1,18.45,13.68,60.11,60.11,0,0,1,11.16,20.16,76.61,76.61,0,0,1,3.78,24.21,74,74,0,0,1-6.66,31.59,53.83,53.83,0,0,1-19.8,22.86q-13.14,8.55-32.58,8.55H865.73V83.6Zm-.9,107.28q14.22,0,23-6a35.33,35.33,0,0,0,13-16.11,60.79,60.79,0,0,0,0-44.1,35.88,35.88,0,0,0-13-16.2q-8.82-6.12-23-6.12h-29v88.56Z" transform="translate(-30.2 -20)"/><path class="cls-5" d="M1011.53,251,1027,215.54l.54-1.26L983.63,115.1h21.6l29.52,69.48a21,21,0,0,1,1.08,2.7q.54,1.62,1.26,3.6.72-2,1.35-3.87t1.35-3.69l24.66-68.22h22l-38.88,94.5-16,41.4Z" transform="translate(-30.2 -20)"/><path class="cls-5" d="M1149.77,113.12q12.78,0,19.8,5.22a27.21,27.21,0,0,1,9.81,14,64.85,64.85,0,0,1,2.79,19.62v57.6h-18.54V153.26a38.61,38.61,0,0,0-1.8-12.24,16.39,16.39,0,0,0-6.12-8.46q-4.32-3.06-12.06-2.52a26.14,26.14,0,0,0-12.78,3.06,24,24,0,0,0-8.82,8.1,20.21,20.21,0,0,0-3.24,11.16V209.6h-18.54V115.1h18.54V130a39.31,39.31,0,0,1,12.6-11.79A34.17,34.17,0,0,1,1149.77,113.12Z" transform="translate(-30.2 -20)"/><path class="cls-5" d="M1295.39,115.1v94.5h-18.72V195q-4.32,5.94-12.78,11.16a36.6,36.6,0,0,1-19.62,5.22,39.32,39.32,0,0,1-21.69-6.3A44.5,44.5,0,0,1,1207,187.64a54.94,54.94,0,0,1-5.76-25.56q0-14.4,5.94-25.47a43.71,43.71,0,0,1,16.38-17.28,45.58,45.58,0,0,1,23.76-6.21,34.07,34.07,0,0,1,17.37,4.32,40.92,40.92,0,0,1,12,10.08V115.1Zm-46.8,79.2a27,27,0,0,0,15.12-4.23,28.53,28.53,0,0,0,10.08-11.52,36.7,36.7,0,0,0,3.6-16.47,35.72,35.72,0,0,0-3.6-16.2,28.67,28.67,0,0,0-10.08-11.43,28.76,28.76,0,0,0-29.88-.09,28,28,0,0,0-10.08,11.34,36.13,36.13,0,0,0-3.6,16.38,36.7,36.7,0,0,0,3.6,16.47,28.53,28.53,0,0,0,10.08,11.52A26.4,26.4,0,0,0,1248.59,194.3Z" transform="translate(-30.2 -20)"/><path class="cls-5" d="M1369.37,113.48q11.7,0,18.72,5.31a29.25,29.25,0,0,1,10.08,14.49,39,39,0,0,1,7.38-9.09,43.29,43.29,0,0,1,11.34-7.65,32.05,32.05,0,0,1,13.86-3.06q12.24,0,19.08,5.31a28.17,28.17,0,0,1,9.63,14.22,66.39,66.39,0,0,1,2.79,19.89v56.7h-18.72V154q0-10.44-4-16.92t-14.94-6.48q-10.44,0-17.19,6.57a21.4,21.4,0,0,0-6.75,15.93V209.6H1382v-56q0-10.08-4.32-16.56t-14.22-6.48a24.39,24.39,0,0,0-12.24,3.06,23.13,23.13,0,0,0-8.46,8,20.54,20.54,0,0,0-3.06,11.07V209.6H1321V115.1h18.72v15.12a41.85,41.85,0,0,1,12.15-11.61A31.33,31.33,0,0,1,1369.37,113.48Z" transform="translate(-30.2 -20)"/><path class="cls-5" d="M1499.5,94.58q-6.3,0-9.36-3.24a11.82,11.82,0,0,1-3.06-8.46,12.18,12.18,0,0,1,3.06-8.1q3.06-3.6,9.36-3.6t9.37,3.24a11.86,11.86,0,0,1,3.05,8.46,12.22,12.22,0,0,1-3.05,8.1Q1505.8,94.58,1499.5,94.58Zm9.54,115H1490.5V115.1H1509Z" transform="translate(-30.2 -20)"/><path class="cls-5" d="M1549,162.26a32.47,32.47,0,0,0,4.24,16.65,32,32,0,0,0,11.16,11.52,28,28,0,0,0,14.85,4.23,26.58,26.58,0,0,0,15.66-4.68,54.68,54.68,0,0,0,10.8-9.72l10.25,12.6a38.67,38.67,0,0,1-9.35,9.09,52.84,52.84,0,0,1-13.5,6.84,48.25,48.25,0,0,1-15.85,2.61,43.41,43.41,0,0,1-23.39-6.48,46,46,0,0,1-16.47-17.64,51.66,51.66,0,0,1-6-25,51.52,51.52,0,0,1,6-25.11,46.2,46.2,0,0,1,16.47-17.55,43.41,43.41,0,0,1,23.39-6.48,50.21,50.21,0,0,1,23.41,5.31q10.24,5.31,15.29,13.77l-10.25,12.6a35.15,35.15,0,0,0-11.79-10.53,29.75,29.75,0,0,0-14.85-4.41,28.51,28.51,0,0,0-15.31,4.23,30.25,30.25,0,0,0-10.8,11.52A34.32,34.32,0,0,0,1549,162.26Z" transform="translate(-30.2 -20)"/><path class="cls-5" d="M1688,139.94a44.55,44.55,0,0,0-11.43-8.28,26.34,26.34,0,0,0-11.79-3.24,31.41,31.41,0,0,0-7.47.9,13.29,13.29,0,0,0-6.21,3.33q-2.52,2.43-2.52,7.11a9.73,9.73,0,0,0,5.85,9.18,78.37,78.37,0,0,0,14.13,4.86,110.2,110.2,0,0,1,14.4,4.95,29.4,29.4,0,0,1,11.61,8.64q4.59,5.67,4.59,15.93a23.73,23.73,0,0,1-4.95,15.12,31.69,31.69,0,0,1-12.78,9.63,41.65,41.65,0,0,1-16.47,3.33,58,58,0,0,1-20.25-3.69,38.07,38.07,0,0,1-17-12.69l12.6-10.8a36.55,36.55,0,0,0,11.07,8.73q6.21,3.15,15.21,3.15a21,21,0,0,0,6.84-1.17,14.1,14.1,0,0,0,5.85-3.78,10,10,0,0,0,2.43-7.11,8.77,8.77,0,0,0-2.61-6.75,19.67,19.67,0,0,0-6.93-4,96.44,96.44,0,0,0-9.54-2.79,126.9,126.9,0,0,1-15.21-5.31,32.55,32.55,0,0,1-12.42-9q-5-5.85-5-15.93a22.64,22.64,0,0,1,4.77-14.49,31.44,31.44,0,0,1,12.51-9.36,41.45,41.45,0,0,1,16.56-3.33,54,54,0,0,1,18.36,3.6,37.13,37.13,0,0,1,16.38,11.52Z" transform="translate(-30.2 -20)"/></g></svg>