<svg id="Calque_1" data-name="Calque 1" xmlns="http://www.w3.org/2000/svg" viewBox="0 0 1667.25 255.7"><defs><style>.cls-1{fill:#b91818;}.cls-2{fill:#fff;}.cls-3{isolation:isolate;}</style></defs><polygon class="cls-1" points="0 127.8 73.9 0 221.5 0 295.4 127.8 221.5 255.7 73.9 255.7 0 127.8"/><rect class="cls-2" x="123.13" y="162.13" width="102.8" height="23.8" transform="translate(-81.8 159.87) rotate(-46)"/><rect class="cls-2" x="161.69" y="66.87" width="23.8" height="102.8" transform="translate(-41.98 142.17) rotate(-46)"/><g class="cls-3"><path class="cls-2" d="M377.21,170.35q7.38,10.62,15.39,16.47t20.79,5.85a34.73,34.73,0,0,0,11.7-2,23.09,23.09,0,0,0,9.18-5.76,12.6,12.6,0,0,0,3.6-9,15.92,15.92,0,0,0-7.65-14q-7.65-5-21.51-7.74-17.64-3.6-28.08-12.51t-10.44-25.83a30,30,0,0,1,6-18.72,39.35,39.35,0,0,1,15.93-12.24,53,53,0,0,1,21.42-4.32q14.94,0,25.74,5.76a41.94,41.94,0,0,1,16.92,16.38l-13.68,13.5A41.51,41.51,0,0,0,430.31,103,29.89,29.89,0,0,0,413,98q-9.9,0-16.65,4.59a14.53,14.53,0,0,0-6.75,12.69q0,9.18,7.11,13.41t18.81,6.75a88.34,88.34,0,0,1,20.16,6.66,45.49,45.49,0,0,1,15.57,11.61,25.69,25.69,0,0,1,6,17.19q0,18-12.24,28.62t-33.66,10.62a60.43,60.43,0,0,1-26.55-5.76q-12-5.76-21-18.72Z" transform="translate(-9.9 -18.8)"/><path class="cls-2" d="M492.05,161a32.56,32.56,0,0,0,4.23,16.65,32,32,0,0,0,11.16,11.52,28,28,0,0,0,14.85,4.23A26.54,26.54,0,0,0,538,188.71a54.39,54.39,0,0,0,10.8-9.72L559,191.59a38.73,38.73,0,0,1-9.36,9.09,52.84,52.84,0,0,1-13.5,6.84,48.46,48.46,0,0,1-15.84,2.61,43.47,43.47,0,0,1-23.4-6.48A46.18,46.18,0,0,1,480.44,186a51.78,51.78,0,0,1-6-25,51.63,51.63,0,0,1,6-25.11,46.36,46.36,0,0,1,16.47-17.55,43.47,43.47,0,0,1,23.4-6.48,50.17,50.17,0,0,1,23.4,5.31Q554,122.47,559,130.93l-10.26,12.6A35,35,0,0,0,537,133a29.7,29.7,0,0,0-14.85-4.41,28.48,28.48,0,0,0-15.3,4.23A30.25,30.25,0,0,0,496,144.34,34.32,34.32,0,0,0,492.05,161Z" transform="translate(-9.9 -18.8)"/><path class="cls-2" d="M664.49,113.83v94.5H645.76V193.75q-4.32,5.94-12.77,11.16a36.74,36.74,0,0,1-19.62,5.22,39.35,39.35,0,0,1-21.7-6.3,44.5,44.5,0,0,1-15.57-17.46,54.94,54.94,0,0,1-5.76-25.56q0-14.4,5.95-25.47a43.64,43.64,0,0,1,16.38-17.28,45.52,45.52,0,0,1,23.75-6.21,34.07,34.07,0,0,1,17.37,4.32,40.92,40.92,0,0,1,12,10.08V113.83ZM617.68,193a27,27,0,0,0,15.12-4.23,28.53,28.53,0,0,0,10.08-11.52,36.71,36.71,0,0,0,3.61-16.47,35.73,35.73,0,0,0-3.61-16.2,28.67,28.67,0,0,0-10.08-11.43,28.76,28.76,0,0,0-29.88-.09,28,28,0,0,0-10.08,11.34,36.13,36.13,0,0,0-3.59,16.38,36.7,36.7,0,0,0,3.59,16.47,28.53,28.53,0,0,0,10.08,11.52A26.42,26.42,0,0,0,617.68,193Z" transform="translate(-9.9 -18.8)"/><path class="cls-2" d="M690.4,208.33V75.13h18.54v133.2Z" transform="translate(-9.9 -18.8)"/><path class="cls-2" d="M814.79,195.91h-.18q-5.77,5.58-15.84,9.9a53,53,0,0,1-21.06,4.32q-14.78,0-26-6.21a44.82,44.82,0,0,1-17.55-17.1,48.42,48.42,0,0,1-6.3-24.75q0-15.84,6.66-27.09a45.86,45.86,0,0,1,17.64-17.28,48.89,48.89,0,0,1,23.94-6,41.08,41.08,0,0,1,21.6,5.85,43,43,0,0,1,15.48,16.11q5.75,10.26,5.76,23.94l-.18,7.92H746.39q1.62,12.78,10.53,20.25t22.59,7.47q9.88,0,16-3.69a75.22,75.22,0,0,0,10.08-7.11Zm-38.7-67.14a34.2,34.2,0,0,0-18.54,4.95q-7.93,5-10.44,17H800v-1.26a20.65,20.65,0,0,0-4-10.8,24.72,24.72,0,0,0-19.89-9.9Z" transform="translate(-9.9 -18.8)"/><path class="cls-2" d="M893.08,82.33q14.58,0,25.66,5A51,51,0,0,1,937.18,101a59.94,59.94,0,0,1,11.16,20.16,76.33,76.33,0,0,1,3.78,24.21,74,74,0,0,1-6.66,31.59,53.88,53.88,0,0,1-19.79,22.86q-13.15,8.55-32.59,8.55H843.76v-126Zm-.9,107.28q14.22,0,23-6a35.33,35.33,0,0,0,13-16.11,60.65,60.65,0,0,0,0-44.1,35.88,35.88,0,0,0-13-16.2q-8.82-6.12-23-6.12h-29v88.56Z" transform="translate(-9.9 -18.8)"/><path class="cls-2" d="M989.56,249.73,1005,214.27l.54-1.26-43.92-99.18h21.6l29.52,69.48a21,21,0,0,1,1.08,2.7q.54,1.62,1.26,3.6.72-2,1.35-3.87t1.35-3.69l24.66-68.22h22l-38.88,94.5-16,41.4Z" transform="translate(-9.9 -18.8)"/><path class="cls-2" d="M1127.8,111.85q12.78,0,19.8,5.22a27.21,27.21,0,0,1,9.81,14,64.85,64.85,0,0,1,2.79,19.62v57.6h-18.54V152a38.61,38.61,0,0,0-1.8-12.24,16.39,16.39,0,0,0-6.12-8.46q-4.32-3.06-12.06-2.52a26.14,26.14,0,0,0-12.78,3.06,24,24,0,0,0-8.82,8.1,20.21,20.21,0,0,0-3.24,11.16v57.24H1078.3v-94.5h18.54v14.94a39.31,39.31,0,0,1,12.6-11.79A34.17,34.17,0,0,1,1127.8,111.85Z" transform="translate(-9.9 -18.8)"/><path class="cls-2" d="M1273.42,113.83v94.5H1254.7V193.75q-4.32,5.94-12.78,11.16a36.69,36.69,0,0,1-19.62,5.22,39.32,39.32,0,0,1-21.69-6.3A44.5,44.5,0,0,1,1185,186.37a54.94,54.94,0,0,1-5.76-25.56q0-14.4,5.94-25.47a43.71,43.71,0,0,1,16.38-17.28,45.58,45.58,0,0,1,23.76-6.21,34.07,34.07,0,0,1,17.37,4.32,40.92,40.92,0,0,1,12,10.08V113.83Zm-46.8,79.2a27,27,0,0,0,15.12-4.23,28.53,28.53,0,0,0,10.08-11.52,36.7,36.7,0,0,0,3.6-16.47,35.72,35.72,0,0,0-3.6-16.2,28.67,28.67,0,0,0-10.08-11.43,28.76,28.76,0,0,0-29.88-.09,28,28,0,0,0-10.08,11.34,36.13,36.13,0,0,0-3.6,16.38,36.7,36.7,0,0,0,3.6,16.47,28.53,28.53,0,0,0,10.08,11.52A26.4,26.4,0,0,0,1226.62,193Z" transform="translate(-9.9 -18.8)"/><path class="cls-2" d="M1347.4,112.21q11.7,0,18.72,5.31A29.19,29.19,0,0,1,1376.2,132a39,39,0,0,1,7.38-9.09,43.29,43.29,0,0,1,11.34-7.65,32.05,32.05,0,0,1,13.86-3.06q12.24,0,19.08,5.31a28.11,28.11,0,0,1,9.63,14.22,66.39,66.39,0,0,1,2.79,19.89v56.7h-18.72V152.71q0-10.44-4-16.92t-14.94-6.48q-10.44,0-17.19,6.57a21.4,21.4,0,0,0-6.75,15.93v56.52H1360v-56q0-10.08-4.32-16.56t-14.22-6.48a24.39,24.39,0,0,0-12.24,3.06,23.13,23.13,0,0,0-8.46,8,20.63,20.63,0,0,0-3.06,11.07v56.88H1299v-94.5h18.72V129a41.85,41.85,0,0,1,12.15-11.61A31.33,31.33,0,0,1,1347.4,112.21Z" transform="translate(-9.9 -18.8)"/><path class="cls-2" d="M1477.54,93.31q-6.32,0-9.36-3.24a11.78,11.78,0,0,1-3.06-8.46,12.13,12.13,0,0,1,3.06-8.1q3-3.6,9.36-3.6c4.2,0,7.31,1.08,9.36,3.24a11.82,11.82,0,0,1,3.06,8.46,12.18,12.18,0,0,1-3.06,8.1C1484.85,92.11,1481.74,93.31,1477.54,93.31Zm9.54,115h-18.54v-94.5h18.54Z" transform="translate(-9.9 -18.8)"/><path class="cls-2" d="M1527,161a32.56,32.56,0,0,0,4.23,16.65,32,32,0,0,0,11.16,11.52,28,28,0,0,0,14.85,4.23,26.54,26.54,0,0,0,15.66-4.68,54.68,54.68,0,0,0,10.8-9.72l10.26,12.6a38.73,38.73,0,0,1-9.36,9.09,52.84,52.84,0,0,1-13.5,6.84,48.5,48.5,0,0,1-15.84,2.61,43.44,43.44,0,0,1-23.4-6.48A46.18,46.18,0,0,1,1515.43,186a51.66,51.66,0,0,1-6-25,51.52,51.52,0,0,1,6-25.11,46.36,46.36,0,0,1,16.47-17.55,43.44,43.44,0,0,1,23.4-6.48,50.2,50.2,0,0,1,23.4,5.31q10.26,5.31,15.3,13.77l-10.26,12.6A35.15,35.15,0,0,0,1572,133a29.75,29.75,0,0,0-14.85-4.41,28.48,28.48,0,0,0-15.3,4.23,30.1,30.1,0,0,0-10.8,11.52A34.32,34.32,0,0,0,1527,161Z" transform="translate(-9.9 -18.8)"/><path class="cls-2" d="M1666,138.67a44.55,44.55,0,0,0-11.43-8.28,26.34,26.34,0,0,0-11.79-3.24,31.41,31.41,0,0,0-7.47.9,13.29,13.29,0,0,0-6.21,3.33q-2.52,2.43-2.52,7.11a9.73,9.73,0,0,0,5.85,9.18,78.37,78.37,0,0,0,14.13,4.86,110.2,110.2,0,0,1,14.4,4.95,29.4,29.4,0,0,1,11.61,8.64q4.59,5.67,4.59,15.93a23.73,23.73,0,0,1-5,15.12,31.69,31.69,0,0,1-12.78,9.63,41.65,41.65,0,0,1-16.47,3.33,58.27,58.27,0,0,1-20.25-3.69,38.07,38.07,0,0,1-17-12.69l12.6-10.8a36.55,36.55,0,0,0,11.07,8.73q6.21,3.15,15.21,3.15a21,21,0,0,0,6.84-1.17,14.1,14.1,0,0,0,5.85-3.78,10,10,0,0,0,2.43-7.11,8.77,8.77,0,0,0-2.61-6.75,19.67,19.67,0,0,0-6.93-4,96.44,96.44,0,0,0-9.54-2.79A126.9,126.9,0,0,1,1625.4,164a32.55,32.55,0,0,1-12.42-9q-4.95-5.85-5-15.93a22.64,22.64,0,0,1,4.77-14.49,31.44,31.44,0,0,1,12.51-9.36,41.45,41.45,0,0,1,16.56-3.33,54,54,0,0,1,18.36,3.6A37.13,37.13,0,0,1,1676.61,127Z" transform="translate(-9.9 -18.8)"/></g></svg>